<?xml version="1.0" standalone="no"?>
<!DOCTYPE svg PUBLIC "-//W3C//DTD SVG 20010904//EN"
 "http://www.w3.org/TR/2001/REC-SVG-20010904/DTD/svg10.dtd">
<svg version="1.0" xmlns="http://www.w3.org/2000/svg"
 width="1024.000000pt" height="1024.000000pt" viewBox="0 0 1024.000000 1024.000000"
 preserveAspectRatio="xMidYMid meet">

<g transform="translate(0.000000,1024.000000) scale(0.100000,-0.100000)"
fill="#000000" stroke="none">
<path d="M4927 7560 c-233 -22 -424 -87 -525 -176 -35 -31 -49 -53 -67 -109
l-22 -69 -89 -32 c-259 -91 -459 -226 -521 -352 -24 -49 -28 -69 -28 -143 l0
-85 -60 -34 c-33 -19 -96 -71 -141 -115 -142 -140 -204 -304 -204 -538 0 -192
51 -342 142 -421 58 -50 96 -64 169 -65 83 -1 144 33 232 133 206 232 299 290
407 252 64 -22 93 -20 160 14 130 66 321 99 415 72 33 -9 540 -7 700 4 94 6
106 4 190 -24 50 -17 119 -43 155 -58 l65 -27 72 18 c150 38 204 7 458 -266
77 -83 125 -110 201 -117 101 -8 204 64 258 181 41 90 57 165 63 292 9 203
-31 345 -139 491 -48 64 -185 174 -243 195 l-33 12 5 71 c9 127 -51 231 -193
332 -82 58 -288 156 -389 185 -96 27 -105 33 -105 71 0 170 -294 300 -705 312
-77 3 -180 1 -228 -4z m501 -169 c114 -24 223 -73 262 -118 51 -57 52 -51
-135 -771 -53 -202 -100 -379 -106 -393 -6 -15 -23 -39 -39 -54 l-29 -28 -278
2 c-297 2 -304 3 -337 54 -9 12 -53 166 -100 342 -163 616 -198 759 -192 790
8 39 52 87 102 113 49 24 91 35 98 24 3 -5 30 -120 60 -257 31 -137 63 -259
71 -271 30 -46 103 -40 126 9 9 19 1 69 -42 253 -62 271 -67 302 -46 310 76
29 440 26 585 -5z m557 -363 c82 -28 239 -109 299 -155 106 -82 133 -146 102
-245 -26 -79 -176 -383 -235 -476 -79 -123 -175 -202 -248 -202 -6 0 -44 13
-85 29 -40 16 -101 35 -135 41 -103 20 -102 14 -55 181 23 79 82 302 133 494
50 193 93 354 96 358 6 10 48 2 128 -25z m-1599 -134 c125 -449 224 -828 220
-840 -3 -7 -24 -18 -48 -24 -24 -6 -86 -26 -138 -45 -135 -50 -183 -45 -265
26 -99 87 -311 492 -340 652 -19 101 105 224 325 322 70 31 179 65 195 61 6
-1 29 -70 51 -152z m2162 -458 c95 -49 195 -175 234 -295 29 -92 37 -291 14
-380 -24 -95 -64 -163 -107 -184 -58 -28 -102 -5 -193 102 -100 117 -181 192
-249 231 -31 17 -57 34 -57 38 0 3 10 19 23 36 42 56 103 159 182 306 74 139
93 170 102 170 2 0 25 -11 51 -24z m-2763 -107 c65 -129 163 -296 205 -349 17
-21 30 -40 30 -43 0 -3 -32 -29 -70 -57 -39 -29 -110 -98 -158 -154 -152 -175
-205 -200 -281 -131 -60 54 -101 181 -101 309 0 71 33 220 62 286 39 86 112
174 180 219 34 22 65 38 70 35 5 -3 33 -55 63 -115z"/>
<path d="M1945 5028 c-9 -24 -70 -185 -135 -358 -160 -429 -158 -426 -232
-450 -21 -6 -38 -18 -38 -26 0 -11 26 -14 140 -14 112 0 140 3 140 14 0 7 -13
16 -29 19 -16 3 -36 14 -46 23 -19 20 -17 34 27 152 l31 82 138 0 138 0 31
-81 c52 -136 51 -161 -11 -174 -16 -4 -29 -13 -29 -21 0 -12 29 -14 182 -12
134 2 182 6 186 16 2 6 -4 12 -13 12 -33 0 -75 32 -96 72 -12 23 -43 100 -70
172 -28 72 -93 240 -145 374 -93 235 -97 242 -124 242 -23 0 -31 -7 -45 -42z
m49 -341 c31 -79 56 -146 56 -150 0 -4 -49 -7 -110 -7 -71 0 -110 4 -110 11 0
11 102 289 106 289 1 0 27 -64 58 -143z"/>
<path d="M4829 5056 c-138 -49 -179 -186 -96 -325 20 -35 37 -65 37 -69 0 -4
-27 -24 -60 -45 -108 -70 -160 -145 -160 -232 0 -138 109 -225 279 -225 88 0
141 15 205 60 25 16 48 30 51 30 4 0 23 -14 43 -31 52 -46 98 -62 158 -56 60
6 129 38 144 67 12 23 4 25 -36 10 -42 -16 -83 -2 -136 48 -68 63 -74 76 -49
111 11 15 41 71 66 123 51 106 63 120 118 138 20 6 37 17 37 23 0 9 -42 12
-150 12 -110 1 -150 -3 -150 -11 0 -7 13 -15 29 -19 15 -3 38 -15 51 -27 19
-18 22 -29 18 -69 -5 -53 -53 -159 -71 -159 -12 1 -88 95 -171 212 -48 68 -48
68 -24 77 73 29 158 147 158 221 0 111 -156 184 -291 136z m160 -71 c26 -30
31 -44 31 -86 0 -28 -5 -60 -11 -72 -15 -30 -80 -97 -94 -97 -27 0 -83 126
-84 188 -1 35 5 49 28 73 43 42 89 40 130 -6z m-60 -525 c67 -88 121 -164 121
-169 0 -17 -95 -55 -140 -56 -103 -1 -197 87 -208 193 -5 57 13 99 66 155 20
20 37 37 38 37 1 0 56 -72 123 -160z"/>
<path d="M7286 5059 c-66 -16 -175 -79 -217 -127 -91 -104 -133 -252 -112
-393 15 -95 69 -203 129 -258 114 -106 296 -146 462 -102 241 63 382 314 317
564 -21 81 -49 132 -106 192 -55 58 -126 101 -203 121 -57 15 -210 17 -270 3z
m223 -59 c54 -27 116 -102 141 -168 28 -74 43 -201 35 -287 -23 -243 -172
-381 -346 -320 -129 46 -198 211 -186 445 8 161 61 275 152 327 53 30 149 31
204 3z"/>
<path d="M750 5037 c0 -7 19 -19 42 -27 69 -24 68 -22 66 -408 l-3 -344 -28
-24 c-15 -13 -39 -24 -53 -24 -15 0 -24 -6 -24 -15 0 -13 35 -15 258 -15 226
0 266 2 315 19 115 37 174 101 184 195 5 47 2 64 -21 111 -31 62 -77 96 -161
116 -27 6 -57 14 -65 16 -16 5 -14 6 60 34 47 18 108 75 126 117 43 103 -17
211 -138 247 -69 20 -558 23 -558 2z m455 -51 c57 -38 86 -128 66 -204 -23
-84 -82 -122 -190 -122 l-51 0 0 163 c0 117 4 167 13 176 17 18 129 8 162 -13z
m44 -409 c110 -73 104 -262 -11 -327 -33 -18 -57 -24 -106 -23 -97 1 -96 0
-100 209 l-3 176 89 -3 c77 -4 94 -8 131 -32z"/>
<path d="M2490 5036 c0 -7 13 -16 28 -19 16 -3 39 -15 53 -25 l24 -20 0 -357
0 -357 -24 -20 c-14 -10 -37 -22 -53 -25 -15 -3 -28 -12 -28 -19 0 -11 36 -14
195 -14 153 0 195 3 195 13 0 7 -20 18 -45 25 -60 16 -65 32 -65 196 0 126 1
134 23 154 13 12 29 22 35 22 6 0 66 -73 132 -162 133 -178 140 -197 78 -212
-21 -5 -38 -15 -38 -23 0 -10 41 -13 200 -13 219 0 241 7 150 47 -43 19 -61
38 -151 160 -56 76 -133 179 -171 230 l-68 92 119 133 c120 135 135 147 205
171 22 8 42 19 44 25 3 9 -40 12 -162 12 -135 0 -166 -3 -166 -14 0 -8 15 -17
35 -20 44 -9 59 -33 40 -70 -8 -15 -63 -81 -122 -147 -59 -66 -121 -136 -136
-155 -16 -19 -33 -34 -38 -34 -12 0 -11 322 1 355 6 17 26 33 55 46 25 11 45
24 45 29 0 6 -78 10 -195 10 -159 0 -195 -3 -195 -14z"/>
<path d="M3470 5037 c0 -8 18 -19 40 -26 71 -21 70 -14 70 -401 0 -263 -3
-350 -13 -363 -7 -10 -30 -24 -52 -31 -89 -31 -54 -36 238 -36 156 0 311 -3
344 -6 l61 -7 6 49 c19 164 19 186 0 182 -9 -1 -30 -25 -46 -52 -35 -59 -60
-81 -117 -101 -51 -17 -192 -20 -222 -5 -18 10 -19 23 -19 186 0 147 2 176 15
180 9 4 48 2 88 -4 58 -9 77 -16 95 -37 12 -14 22 -34 22 -44 0 -19 23 -35 34
-24 3 4 6 64 6 135 0 104 -3 128 -14 128 -8 0 -20 -16 -26 -36 -16 -46 -57
-64 -150 -64 l-70 0 0 170 0 170 92 0 c124 0 162 -18 209 -100 55 -97 66 -82
53 73 l-7 77 -318 0 c-260 0 -319 -2 -319 -13z"/>
<path d="M5780 5036 c0 -8 13 -17 29 -21 37 -8 71 -40 72 -68 0 -12 0 -161 -1
-332 -1 -351 -2 -355 -78 -390 -78 -36 -57 -45 108 -45 162 0 181 7 106 40
-25 10 -49 27 -54 37 -11 21 -18 269 -14 493 2 100 6 148 12 135 5 -11 70
-162 146 -335 75 -173 143 -327 150 -342 24 -47 49 -36 77 35 14 34 82 202
151 372 l126 310 0 -326 c0 -312 -1 -327 -20 -352 -11 -14 -34 -28 -50 -32
-17 -4 -30 -13 -30 -21 0 -12 33 -14 191 -14 142 0 190 3 187 12 -2 6 -19 17
-37 23 -19 6 -42 21 -52 34 -18 22 -19 46 -19 365 0 379 -1 374 66 402 63 26
38 34 -105 34 l-138 0 -38 -92 c-21 -51 -64 -154 -95 -228 -31 -74 -72 -172
-90 -218 -19 -45 -37 -79 -41 -75 -8 8 -68 145 -204 463 l-62 145 -146 3
c-123 2 -147 0 -147 -12z"/>
<path d="M7950 5037 c0 -8 14 -17 32 -21 18 -3 42 -16 55 -28 l23 -21 0 -352
c0 -267 -3 -355 -13 -368 -7 -10 -28 -23 -48 -30 -74 -25 -46 -32 149 -35 159
-2 192 0 192 12 0 8 -18 18 -45 25 -25 6 -49 19 -55 30 -6 11 -10 88 -10 175
l0 156 28 0 c48 0 88 -34 120 -102 17 -35 49 -102 71 -150 29 -61 52 -95 78
-115 34 -26 44 -28 150 -31 89 -3 113 -1 113 10 0 7 -24 22 -53 33 -58 22 -69
36 -166 215 -42 76 -69 114 -100 138 -26 19 -37 34 -29 36 73 23 118 46 148
76 59 59 76 158 41 235 -22 49 -43 68 -106 97 -47 22 -64 23 -312 26 -225 3
-263 1 -263 -11z m435 -47 c22 -11 49 -33 58 -50 42 -70 30 -215 -21 -263 -36
-35 -73 -47 -138 -47 l-54 0 0 180 c0 160 2 180 18 189 28 17 93 12 137 -9z"/>
<path d="M8850 5036 c0 -7 13 -16 28 -19 16 -3 39 -15 53 -25 l24 -20 3 -344
c2 -386 3 -384 -66 -408 -23 -8 -42 -20 -42 -27 0 -10 70 -13 339 -13 l339 0
8 98 c5 53 9 101 9 107 0 5 -7 11 -15 13 -9 1 -24 -15 -39 -43 -30 -57 -79
-101 -128 -114 -21 -6 -77 -11 -125 -11 -76 0 -89 2 -98 19 -6 12 -10 92 -10
192 l0 172 80 -5 c93 -5 129 -25 142 -76 5 -18 15 -32 23 -32 12 0 15 22 15
125 0 97 -3 125 -13 125 -7 0 -20 -15 -28 -32 -19 -45 -51 -58 -141 -58 l-78
0 0 170 0 170 100 0 c63 0 113 -5 134 -14 37 -15 80 -66 97 -114 6 -18 17 -32
25 -32 11 0 14 22 14 105 l0 105 -325 0 c-269 0 -325 -2 -325 -14z"/>
<path d="M6403 3797 c-54 -15 -62 -24 -29 -33 l26 -6 0 -205 0 -205 22 5 c12
4 27 2 34 -4 7 -6 35 -10 63 -11 61 0 102 26 131 82 66 130 -43 270 -156 201
l-32 -19 -6 68 c-4 38 -4 85 0 104 7 39 7 39 -53 23z m182 -229 c25 -29 27
-38 23 -96 -4 -56 -8 -68 -32 -89 -33 -28 -67 -25 -101 8 -16 16 -19 31 -17
101 2 93 12 108 68 108 24 0 39 -8 59 -32z"/>
<path d="M7558 3797 c-53 -10 -59 -17 -25 -32 21 -10 22 -15 25 -180 3 -184 0
-215 -23 -215 -8 0 -15 -7 -15 -15 0 -12 14 -15 65 -15 66 0 81 10 45 30 -16
9 -20 21 -20 65 0 29 4 57 10 60 5 3 31 -27 57 -68 43 -67 52 -75 86 -81 58
-10 63 2 19 48 -21 22 -54 62 -72 89 l-34 47 35 36 c19 20 48 42 64 49 30 13
30 13 -22 14 -36 1 -53 -3 -53 -11 0 -7 -19 -35 -43 -63 l-42 -49 -5 150 -5
149 -47 -8z"/>
<path d="M5368 3785 c-36 -20 -58 -64 -58 -114 0 -36 -3 -40 -27 -43 -36 -4
-36 -22 -2 -26 24 -3 27 -7 27 -45 1 -23 -1 -75 -4 -114 -5 -63 -8 -73 -25
-73 -10 0 -19 -4 -19 -10 0 -12 -3 -11 83 -14 69 -3 86 7 42 24 -25 9 -25 11
-25 119 l0 110 37 3 c53 4 56 28 3 28 l-41 0 3 61 c4 77 21 93 69 65 36 -21
62 -9 43 22 -14 22 -71 26 -106 7z"/>
<path d="M7932 3772 c-28 -26 -36 -47 -45 -122 -1 -8 -12 -16 -25 -18 -27 -4
-30 -32 -3 -32 16 0 20 -11 26 -75 9 -98 0 -155 -25 -155 -25 0 -35 -17 -13
-24 10 -2 47 -1 83 3 61 7 63 8 38 19 l-28 12 0 110 0 110 35 0 c24 0 35 5 35
15 0 10 -11 15 -35 15 l-35 0 0 53 c0 51 19 97 41 97 5 0 17 -9 26 -20 22 -25
53 -26 53 -2 0 50 -80 59 -128 14z"/>
<path d="M2410 3775 c-24 -29 8 -75 44 -62 30 12 14 77 -20 77 -6 0 -17 -7
-24 -15z"/>
<path d="M3613 3784 c-18 -8 -16 -49 2 -64 26 -22 50 -8 50 30 0 28 -4 35 -20
37 -11 1 -26 -1 -32 -3z"/>
<path d="M8643 3705 c-13 -9 -23 -27 -23 -41 0 -17 -8 -27 -25 -34 -14 -5 -25
-14 -25 -20 0 -5 11 -10 25 -10 l25 0 0 -118 c0 -78 4 -122 12 -130 15 -15 82
-16 109 -2 30 17 22 29 -16 23 -31 -5 -36 -3 -45 21 -5 15 -10 67 -10 116 l0
89 42 3 c59 4 63 28 4 28 l-45 0 -3 45 c-3 45 -3 45 -25 30z"/>
<path d="M2218 3693 c-9 -10 -18 -27 -20 -38 -2 -12 -13 -21 -26 -23 -31 -5
-28 -32 3 -32 l25 0 0 -118 c0 -78 4 -122 12 -130 15 -15 69 -15 103 0 34 16
32 32 -5 25 -50 -10 -60 10 -60 124 l0 99 40 0 c29 0 40 4 40 15 0 11 -11 15
-40 15 l-40 0 0 40 c0 44 -8 49 -32 23z"/>
<path d="M1555 3633 c-47 -10 -50 -14 -25 -26 25 -12 25 -14 28 -172 3 -181 0
-200 -28 -208 -11 -3 -20 -10 -20 -16 0 -7 29 -11 80 -11 80 0 106 12 49 24
-30 6 -30 6 -27 63 l3 57 50 -3 c117 -6 198 120 151 234 -28 65 -119 86 -175
39 l-31 -26 0 26 c0 26 -9 30 -55 19z m189 -64 c19 -23 26 -42 26 -75 0 -100
-53 -150 -122 -116 l-33 17 -3 85 c-3 77 -1 87 19 103 35 28 83 22 113 -14z"/>
<path d="M1943 3625 c-40 -17 -71 -61 -54 -78 15 -15 45 3 49 30 2 11 15 26
29 34 23 12 27 11 49 -14 43 -50 34 -71 -48 -104 -96 -39 -122 -88 -72 -138
22 -22 86 -19 117 5 25 20 25 20 30 -1 5 -17 12 -20 43 -17 41 3 56 22 24 31
-18 5 -20 13 -20 110 0 90 -3 108 -21 131 -24 30 -73 35 -126 11z m97 -174 c0
-47 -20 -71 -60 -71 -62 0 -60 68 3 95 50 22 57 19 57 -24z"/>
<path d="M2410 3633 c-37 -7 -49 -23 -22 -29 21 -6 22 -11 22 -119 0 -104 -1
-113 -20 -118 -42 -11 -17 -22 50 -22 67 0 92 11 50 22 -22 6 -23 21 -20 196
1 84 3 81 -60 70z"/>
<path d="M2579 3611 c-52 -52 -32 -95 74 -155 49 -28 61 -58 35 -84 -31 -31
-88 -6 -125 54 -11 17 -12 15 -12 -16 -1 -46 9 -60 50 -69 49 -10 100 3 126
34 45 52 23 101 -66 143 -49 24 -56 31 -56 56 0 59 71 61 102 3 l18 -32 3 35
c4 43 -16 60 -76 60 -35 0 -49 -6 -73 -29z"/>
<path d="M2853 3630 c-32 -13 -52 -50 -46 -83 6 -29 24 -46 97 -89 34 -20 46
-34 46 -51 0 -57 -56 -63 -107 -12 -19 19 -37 35 -39 35 -2 0 -4 -12 -4 -27 0
-50 13 -58 91 -58 62 0 73 3 90 24 20 24 25 76 10 99 -4 7 -37 30 -72 50 -50
29 -64 43 -64 61 0 13 8 29 17 35 23 14 70 -3 83 -32 16 -35 39 -28 31 10 -3
17 -8 34 -11 36 -9 10 -101 11 -122 2z"/>
<path d="M3123 3624 c-97 -48 -102 -229 -8 -272 48 -22 107 -15 145 17 39 32
35 53 -4 27 -42 -27 -90 -21 -120 15 -14 17 -26 37 -26 44 0 7 -3 20 -6 29 -5
13 8 16 88 18 l93 3 3 33 c3 26 -3 39 -31 67 -40 40 -80 45 -134 19z m87 -24
c11 -11 20 -31 20 -45 0 -24 -3 -25 -60 -25 -52 0 -60 3 -60 19 0 26 38 71 61
71 10 0 28 -9 39 -20z"/>
<path d="M3363 3633 c-37 -5 -44 -22 -13 -30 19 -5 20 -14 20 -118 0 -104 -1
-113 -20 -118 -42 -11 -17 -22 48 -21 63 1 97 15 52 22 -17 3 -20 11 -21 60
-2 125 7 162 39 162 10 0 27 -6 38 -14 33 -25 62 22 32 52 -20 20 -50 14 -80
-15 l-28 -27 0 27 c0 28 0 28 -67 20z"/>
<path d="M3621 3631 c-40 -7 -51 -26 -21 -34 20 -5 21 -11 18 -112 -3 -101 -4
-108 -25 -116 -41 -15 -24 -24 47 -25 71 -2 86 6 50 26 -18 10 -20 21 -20 140
0 72 -3 129 -7 129 -5 -1 -23 -4 -42 -8z"/>
<path d="M3831 3622 c-48 -24 -73 -62 -79 -121 -5 -61 10 -102 50 -136 49 -41
146 -30 180 19 15 22 7 26 -22 11 -16 -8 -42 -15 -57 -15 -46 1 -93 51 -93 99
0 20 6 21 89 21 98 0 103 3 90 60 -16 71 -86 99 -158 62z m75 -10 c15 -10 34
-47 34 -66 0 -13 -13 -16 -65 -16 -70 0 -74 4 -50 50 19 37 54 51 81 32z"/>
<path d="M4771 3622 c-48 -24 -73 -62 -79 -121 -9 -97 42 -161 129 -161 40 0
55 5 81 29 38 34 34 48 -8 26 -45 -23 -73 -18 -110 19 -30 30 -34 40 -34 86 0
111 81 162 128 80 19 -33 37 -39 46 -14 7 20 -9 50 -34 64 -28 15 -81 12 -119
-8z"/>
<path d="M5033 3625 c-34 -15 -58 -48 -49 -71 10 -25 35 -15 50 20 19 45 53
56 78 26 12 -14 18 -35 16 -53 -3 -27 -9 -32 -57 -49 -67 -22 -101 -52 -101
-89 0 -66 71 -94 130 -51 29 22 29 22 40 2 11 -20 43 -26 74 -14 23 9 20 24
-4 24 -17 0 -20 7 -21 53 -1 28 -3 61 -4 72 -1 11 -3 39 -3 63 -3 75 -66 104
-149 67z m97 -182 c-4 -39 -10 -50 -32 -61 -35 -16 -68 -1 -68 31 0 39 42 76
85 77 19 0 20 -4 15 -47z"/>
<path d="M5542 3623 c-77 -37 -98 -179 -37 -243 52 -55 124 -58 177 -9 37 35
32 47 -11 25 -16 -9 -41 -16 -55 -16 -36 0 -76 39 -85 83 l-9 37 89 0 c100 0
106 4 95 66 -13 64 -93 92 -164 57z m95 -27 c7 -6 14 -22 15 -36 3 -24 1 -25
-59 -28 -58 -3 -63 -1 -63 18 0 32 46 73 73 65 12 -4 27 -12 34 -19z"/>
<path d="M6752 3630 c-42 -10 -52 -19 -25 -26 17 -5 21 -16 27 -66 9 -91 -2
-165 -26 -171 -41 -11 -4 -27 63 -27 72 0 90 13 43 30 -25 10 -26 11 -24 108
3 180 8 168 -58 152z"/>
<path d="M6848 3622 c-36 -22 -36 -40 0 -34 18 2 33 -2 41 -12 16 -19 41 -5
41 23 0 40 -38 51 -82 23z"/>
<path d="M7030 3623 c-68 -35 -101 -144 -65 -213 39 -76 136 -96 197 -41 36
32 33 53 -4 27 -59 -42 -148 8 -148 83 0 19 7 20 93 23 l92 3 -1 39 c-3 76
-89 118 -164 79z m82 -17 c10 -7 21 -27 24 -45 l7 -31 -67 0 c-77 0 -85 13
-37 61 32 32 47 35 73 15z"/>
<path d="M7304 3624 c-32 -15 -59 -58 -49 -75 12 -19 36 -8 47 21 19 55 65 62
87 14 21 -48 15 -60 -51 -88 -80 -35 -98 -51 -98 -91 0 -63 72 -90 129 -47 28
21 29 21 34 2 5 -20 38 -27 71 -14 23 9 20 24 -4 24 -19 0 -20 7 -20 109 0 94
-3 112 -21 135 -24 31 -75 35 -125 10z m94 -181 c-3 -40 -7 -50 -30 -63 -38
-21 -63 -4 -63 41 0 29 5 37 35 51 55 28 62 24 58 -29z"/>
<path d="M8103 3620 c-30 -18 -53 -63 -40 -76 13 -14 45 9 50 35 7 35 33 46
62 27 26 -17 41 -64 26 -79 -6 -6 -38 -22 -73 -36 -79 -33 -99 -65 -74 -117
14 -31 20 -34 59 -34 30 0 52 7 68 20 l23 21 8 -21 c7 -20 39 -26 72 -14 22 9
20 24 -3 24 -18 0 -20 10 -23 116 -3 108 -5 117 -27 135 -30 25 -87 24 -128
-1z m104 -176 c-5 -46 -26 -73 -59 -74 -22 0 -52 45 -44 65 7 19 65 55 90 55
16 0 18 -6 13 -46z"/>
<path d="M8378 3625 c-34 -19 -46 -67 -24 -100 9 -14 42 -42 73 -62 60 -40 74
-63 53 -88 -22 -27 -61 -17 -101 24 -40 43 -52 43 -43 2 10 -42 40 -61 96 -61
41 0 54 5 79 29 53 53 31 108 -60 151 -59 27 -78 63 -46 87 30 21 52 15 82
-21 32 -41 41 -39 35 7 -3 26 -10 37 -25 41 -38 10 -91 6 -119 -9z"/>
<path d="M4291 3544 c-12 -15 -21 -35 -21 -46 0 -25 44 -68 70 -68 29 0 70 44
70 75 0 61 -81 87 -119 39z"/>
<path d="M6016 3549 c-35 -28 -35 -70 1 -99 67 -53 152 40 90 98 -29 28 -57
28 -91 1z"/>
</g>
</svg>
